<svg width="164" height="43" viewBox="0 0 164 43" fill="none" xmlns="http://www.w3.org/2000/svg">
<path d="M7.6004 38.2C8.3004 38.8 9.50039 38.8 10.2004 38.2L11.9004 36.6H5.90039L7.6004 38.2Z" fill="#565656"/>
<path d="M31.2002 21.2C31.2002 16.8 28.2002 13.1 23.9002 11.6V9.9C23.9002 8.3 23.5002 5.5 18.9002 5.5H7.5002L8.8002 7.1C9.5002 8 10.7002 8.6 12.0002 8.6H19.0002V8.7L11.5002 9.8C9.7002 10.1 7.80019 9.6 6.40019 8.5C4.50019 7 5.6002 4.2 8.1002 4.1H20.1002C21.3002 4.1 22.4002 3.6 23.1002 2.8L25.2002 0.5H8.8002C3.3002 0.5 0.200195 3.3 0.200195 7.6V13.9C0.200195 13.9 0.3002 13.9 0.4002 13.9C0.4002 13.9 12.7002 13.9 19.5002 13.9V19.2C18.9002 18.9 16.9002 18 15.8002 17.4C14.6002 16.8 13.2002 16.8 12.2002 17.5L8.7002 19.8L12.5002 23.1V21.5H13.6002C13.6002 21.6 13.6002 21.6 13.6002 21.7C13.6002 22.4 14.2002 22.9 15.0002 22.9C15.8002 22.9 16.4002 22.3 16.4002 21.7C16.4002 21.6 16.4002 21.6 16.4002 21.5H19.6002V31.5C19.2002 31.5 18.1002 31.6 16.2002 31.6C14.8002 31.7 13.3002 31.3 12.4002 30.8C11.4002 30.1 10.5002 29.3 10.5002 29.3L7.6002 31.1V19.3L4.7002 16.9C3.9002 16.3 2.8002 16.2 2.0002 16.8L0.4002 17.9L4.3002 20.8C4.3002 20.8 4.3002 24.7 4.3002 32.4C3.4002 33.2 0.9002 32.6 0.9002 32.6C0.9002 32.6 2.1002 33.8 2.5002 34.2C3.1002 34.9 4.7002 35.2 5.8002 34.7C6.4002 34.4 8.1002 33.6 8.1002 33.6L10.6002 34.8C11.7002 35.4 12.9002 35.7 15.0002 34.4C15.9002 33.9 18.7002 32.1 19.5002 31.6V31.7V42.6C22.9002 42.6 25.7002 40.1 25.7002 37.1C25.7002 34.4 23.6002 32.2 20.8002 31.7V31.5C26.7002 30.9 31.2002 26.6 31.2002 21.2ZM19.6002 21.4L15.2002 19.3H19.6002V21.4Z" fill="#565656"/>
<path d="M67.5004 21.4C63.3004 21.6 59.1004 22.9 55.9004 26L56.6004 26.8C60.7004 23.9 63.4004 23.9 63.4004 23.9C63.4004 23.9 64.7004 32.1 56.6004 34.4C54.5004 32.9 51.5004 31.7 51.7004 24.2C51.9004 15 57.4004 14.4 58.4004 14.4C60.5004 14.4 62.3004 15.4 62.9004 18.4L66.3004 16.8C65.3004 15 63.2004 13 58.3004 13C48.4004 13 46.9004 21.9 46.9004 24.2C46.9004 31.7 52.0004 34.9 56.2004 35.5C69.8004 35.4 68.2004 23.3 67.5004 21.4Z" fill="#565656"/>
<path d="M87.6004 27.9C87.6004 28.9 87.2004 33.6 81.7004 33.6C77.8004 33.6 76.1004 32.2 76.1004 27.7V13.4H71.6004V27.6C71.6004 29.4 71.4004 35.3 81.3004 35.3C83.5004 35.3 89.5004 34.2 89.5004 27.9V13.4H87.6004V27.9Z" fill="#565656"/>
<path d="M104.9 24.5C106.8 23.9 109.6 22.7 109.6 19.2C109.6 18.3 109.1 12.9 100.9 12.9C99.3005 12.9 95.9005 13.3 93.5005 14.2V34.8H98.0005V25H100C102.8 25 103.5 26.8 104 28.6L105.8 34.8H110.5L108.7 28.5C108 26.3 106.7 25.2 104.9 24.5ZM99.5005 23.8H98.0005V16.4C98.0005 14.9 99.3005 14.1 100.6 14.1C103.4 14.1 105 16.6 105 19.2C105 23.2 101.9 23.8 99.5005 23.8Z" fill="#565656"/>
<path d="M118.9 13.4H114.4V34.9H118.9V13.4Z" fill="#565656"/>
<path d="M146.9 13.4H142.4V34.8H142.6H146.9H154.6V33H146.9V13.4Z" fill="#565656"/>
<path d="M163.101 13.4H158.601V34.9H163.101V13.4Z" fill="#565656"/>
<path d="M128.4 15V21.8H136.2V23H128.4V33H138V34.8H123.9V13.4H138V15H128.4Z" fill="#565656"/>
</svg>
